<svg width="15" height="19" viewBox="0 0 15 19" fill="none" xmlns="http://www.w3.org/2000/svg">
<path d="M7.43609 10.0088C7.45435 10.0088 7.47261 10.0088 7.49452 10.0088C7.50182 10.0088 7.50912 10.0088 7.51643 10.0088C7.52738 10.0088 7.54199 10.0088 7.55295 10.0088C8.62293 9.98955 9.48841 9.59336 10.1275 8.83558C11.5334 7.16617 11.2997 4.30432 11.2741 4.03121C11.1828 1.98099 10.2626 1.00011 9.50301 0.542367C8.93698 0.200022 8.276 0.0153863 7.53834 0H7.51278C7.50912 0 7.50182 0 7.49817 0H7.47626C7.07091 0 6.27481 0.0692383 5.51158 0.526981C4.7447 0.984723 3.80984 1.9656 3.71854 4.03121C3.69298 4.30432 3.45927 7.16617 4.86521 8.83558C5.50063 9.59336 6.36611 9.98955 7.43609 10.0088ZM4.69358 4.12737C4.69358 4.11583 4.69723 4.1043 4.69723 4.0966C4.81774 1.33861 6.67651 1.04242 7.47261 1.04242H7.48721C7.49452 1.04242 7.50547 1.04242 7.51643 1.04242C8.50242 1.0655 10.1786 1.48862 10.2918 4.0966C10.2918 4.10814 10.2918 4.11968 10.2955 4.12737C10.2991 4.1543 10.5547 6.76997 9.39346 8.14705C8.93333 8.69326 8.31983 8.96252 7.51278 8.97021C7.50547 8.97021 7.50182 8.97021 7.49452 8.97021C7.48721 8.97021 7.48356 8.97021 7.47626 8.97021C6.67286 8.96252 6.0557 8.69326 5.59923 8.14705C4.4416 6.77766 4.68993 4.15045 4.69358 4.12737Z" fill="#949494"/>
<path d="M14.999 14.7554C14.999 14.7515 14.999 14.7477 14.999 14.7438C14.999 14.7131 14.9953 14.6823 14.9953 14.6477C14.9734 13.886 14.9259 12.1051 13.3411 11.5358C13.3301 11.5319 13.3155 11.5281 13.3045 11.5242C11.6576 11.0819 10.2881 10.0818 10.2735 10.0702C10.0508 9.90483 9.74402 9.96253 9.587 10.1972C9.42997 10.4318 9.48474 10.7549 9.7075 10.9203C9.76959 10.9665 11.223 12.032 13.0416 12.5244C13.8925 12.8436 13.9874 13.8014 14.013 14.6784C14.013 14.7131 14.013 14.7438 14.0166 14.7746C14.0203 15.1208 13.9984 15.6555 13.94 15.9632C13.3484 16.3171 11.0295 17.5403 7.50181 17.5403C3.98877 17.5403 1.65526 16.3132 1.06002 15.9593C1.00159 15.6516 0.976027 15.1169 0.983331 14.7708C0.983331 14.74 0.986983 14.7092 0.986983 14.6746C1.01255 13.7976 1.10749 12.8398 1.95836 12.5205C3.77697 12.0281 5.23039 10.9588 5.29247 10.9165C5.51523 10.7511 5.57 10.428 5.41298 10.1933C5.25595 9.95869 4.9492 9.90099 4.72644 10.0664C4.71183 10.0779 3.3497 11.078 1.69543 11.5204C1.68083 11.5242 1.66987 11.5281 1.65892 11.5319C0.0740301 12.1051 0.0265566 13.886 0.00464579 14.6438C0.00464579 14.6784 0.0046457 14.7092 0.000993893 14.74C0.000993893 14.7438 0.000993893 14.7477 0.000993893 14.7515C-0.00265792 14.9515 -0.00630965 15.9786 0.187236 16.494C0.223754 16.594 0.289487 16.6787 0.37713 16.7364C0.486685 16.8133 3.11234 18.575 7.50546 18.575C11.8986 18.575 14.5242 16.8094 14.6338 16.7364C14.7178 16.6787 14.7872 16.594 14.8237 16.494C15.0063 15.9824 15.0026 14.9554 14.999 14.7554Z" fill="#949494"/>
</svg>
